<mxfile host="app.diagrams.net" modified="2023-10-17T00:12:42.390Z" agent="Mozilla/5.0 (Windows NT 10.0; Win64; x64) AppleWebKit/537.36 (KHTML, like Gecko) Chrome/118.0.0.0 Safari/537.36 Edg/118.0.2088.46" etag="i7qgLHnxUzKKHedra9GL" version="22.0.4" type="github">
  <diagram name="PÃ¡gina-1" id="hyICvNXRdC_2v3J1_6AB">
    <mxGraphModel dx="872" dy="473" grid="0" gridSize="10" guides="1" tooltips="1" connect="1" arrows="1" fold="1" page="0" pageScale="1" pageWidth="827" pageHeight="1169" background="#080808" math="0" shadow="0">
      <root>
        <mxCell id="0" />
        <mxCell id="1" parent="0" />
        <mxCell id="Me6fwh5fdMOHNFARENvE-24" style="edgeStyle=orthogonalEdgeStyle;rounded=1;orthogonalLoop=1;jettySize=auto;html=1;labelBackgroundColor=none;fontColor=default;strokeColor=#182E3E;" edge="1" parent="1" source="Me6fwh5fdMOHNFARENvE-5" target="Me6fwh5fdMOHNFARENvE-2">
          <mxGeometry relative="1" as="geometry" />
        </mxCell>
        <mxCell id="Me6fwh5fdMOHNFARENvE-5" value="&amp;lt;&amp;lt;interface&amp;gt;&amp;gt;&lt;br style=&quot;border-color: var(--border-color);&quot;&gt;Navegador" style="swimlane;fontStyle=0;childLayout=stackLayout;horizontal=1;startSize=30;horizontalStack=0;resizeParent=1;resizeParentMax=0;resizeLast=0;collapsible=1;marginBottom=0;whiteSpace=wrap;html=1;rounded=1;labelBackgroundColor=none;fillColor=#56517E;strokeColor=#EEEEEE;fontColor=#FFFFFF;" vertex="1" parent="1">
          <mxGeometry x="560" y="210" width="140" height="120" as="geometry" />
        </mxCell>
        <mxCell id="Me6fwh5fdMOHNFARENvE-6" value="+exibirPagina(): void" style="text;strokeColor=none;fillColor=none;align=left;verticalAlign=middle;spacingLeft=4;spacingRight=4;overflow=hidden;points=[[0,0.5],[1,0.5]];portConstraint=eastwest;rotatable=0;whiteSpace=wrap;html=1;rounded=1;labelBackgroundColor=none;fontColor=#FFFFFF;" vertex="1" parent="Me6fwh5fdMOHNFARENvE-5">
          <mxGeometry y="30" width="140" height="30" as="geometry" />
        </mxCell>
        <mxCell id="Me6fwh5fdMOHNFARENvE-7" value="+adicionarMusica(): void" style="text;strokeColor=none;fillColor=none;align=left;verticalAlign=middle;spacingLeft=4;spacingRight=4;overflow=hidden;points=[[0,0.5],[1,0.5]];portConstraint=eastwest;rotatable=0;whiteSpace=wrap;html=1;rounded=1;labelBackgroundColor=none;fontColor=#FFFFFF;" vertex="1" parent="Me6fwh5fdMOHNFARENvE-5">
          <mxGeometry y="60" width="140" height="30" as="geometry" />
        </mxCell>
        <mxCell id="Me6fwh5fdMOHNFARENvE-8" value="+atualizarPagina(): void" style="text;strokeColor=none;fillColor=none;align=left;verticalAlign=middle;spacingLeft=4;spacingRight=4;overflow=hidden;points=[[0,0.5],[1,0.5]];portConstraint=eastwest;rotatable=0;whiteSpace=wrap;html=1;rounded=1;labelBackgroundColor=none;fontColor=#FFFFFF;" vertex="1" parent="Me6fwh5fdMOHNFARENvE-5">
          <mxGeometry y="90" width="140" height="30" as="geometry" />
        </mxCell>
        <mxCell id="Me6fwh5fdMOHNFARENvE-13" value="&amp;lt;&amp;lt;interface&amp;gt;&amp;gt;&lt;br style=&quot;border-color: var(--border-color);&quot;&gt;AparelhoTelefonico" style="swimlane;fontStyle=0;childLayout=stackLayout;horizontal=1;startSize=30;horizontalStack=0;resizeParent=1;resizeParentMax=0;resizeLast=0;collapsible=1;marginBottom=0;whiteSpace=wrap;html=1;rounded=1;labelBackgroundColor=none;fillColor=#56517E;strokeColor=#EEEEEE;fontColor=#FFFFFF;" vertex="1" parent="1">
          <mxGeometry x="330" y="210" width="140" height="120" as="geometry" />
        </mxCell>
        <mxCell id="Me6fwh5fdMOHNFARENvE-14" value="+ligar(): void" style="text;strokeColor=none;fillColor=none;align=left;verticalAlign=middle;spacingLeft=4;spacingRight=4;overflow=hidden;points=[[0,0.5],[1,0.5]];portConstraint=eastwest;rotatable=0;whiteSpace=wrap;html=1;rounded=1;labelBackgroundColor=none;fontColor=#FFFFFF;" vertex="1" parent="Me6fwh5fdMOHNFARENvE-13">
          <mxGeometry y="30" width="140" height="30" as="geometry" />
        </mxCell>
        <mxCell id="Me6fwh5fdMOHNFARENvE-15" value="+atender(): void" style="text;strokeColor=none;fillColor=none;align=left;verticalAlign=middle;spacingLeft=4;spacingRight=4;overflow=hidden;points=[[0,0.5],[1,0.5]];portConstraint=eastwest;rotatable=0;whiteSpace=wrap;html=1;rounded=1;labelBackgroundColor=none;fontColor=#FFFFFF;" vertex="1" parent="Me6fwh5fdMOHNFARENvE-13">
          <mxGeometry y="60" width="140" height="30" as="geometry" />
        </mxCell>
        <mxCell id="Me6fwh5fdMOHNFARENvE-16" value="+iniciarCorreioVoz(): void" style="text;strokeColor=none;fillColor=none;align=left;verticalAlign=middle;spacingLeft=4;spacingRight=4;overflow=hidden;points=[[0,0.5],[1,0.5]];portConstraint=eastwest;rotatable=0;whiteSpace=wrap;html=1;rounded=1;labelBackgroundColor=none;fontColor=#FFFFFF;" vertex="1" parent="Me6fwh5fdMOHNFARENvE-13">
          <mxGeometry y="90" width="140" height="30" as="geometry" />
        </mxCell>
        <mxCell id="Me6fwh5fdMOHNFARENvE-22" style="edgeStyle=orthogonalEdgeStyle;rounded=1;orthogonalLoop=1;jettySize=auto;html=1;entryX=0;entryY=0.5;entryDx=0;entryDy=0;labelBackgroundColor=none;fontColor=default;strokeColor=#182E3E;" edge="1" parent="1" source="Me6fwh5fdMOHNFARENvE-17" target="Me6fwh5fdMOHNFARENvE-3">
          <mxGeometry relative="1" as="geometry" />
        </mxCell>
        <mxCell id="Me6fwh5fdMOHNFARENvE-17" value="&amp;lt;&amp;lt;interface&amp;gt;&amp;gt;&lt;br style=&quot;border-color: var(--border-color);&quot;&gt;ReprodutorMusical" style="swimlane;fontStyle=0;childLayout=stackLayout;horizontal=1;startSize=30;horizontalStack=0;resizeParent=1;resizeParentMax=0;resizeLast=0;collapsible=1;marginBottom=0;whiteSpace=wrap;html=1;rounded=1;labelBackgroundColor=none;fillColor=#56517E;strokeColor=#EEEEEE;fontColor=#FFFFFF;" vertex="1" parent="1">
          <mxGeometry x="110" y="210" width="150" height="120" as="geometry" />
        </mxCell>
        <mxCell id="Me6fwh5fdMOHNFARENvE-18" value="+tocar(): void" style="text;strokeColor=none;fillColor=none;align=left;verticalAlign=middle;spacingLeft=4;spacingRight=4;overflow=hidden;points=[[0,0.5],[1,0.5]];portConstraint=eastwest;rotatable=0;whiteSpace=wrap;html=1;rounded=1;labelBackgroundColor=none;fontColor=#FFFFFF;" vertex="1" parent="Me6fwh5fdMOHNFARENvE-17">
          <mxGeometry y="30" width="150" height="30" as="geometry" />
        </mxCell>
        <mxCell id="Me6fwh5fdMOHNFARENvE-19" value="+pausar(): void" style="text;strokeColor=none;fillColor=none;align=left;verticalAlign=middle;spacingLeft=4;spacingRight=4;overflow=hidden;points=[[0,0.5],[1,0.5]];portConstraint=eastwest;rotatable=0;whiteSpace=wrap;html=1;rounded=1;labelBackgroundColor=none;fontColor=#FFFFFF;" vertex="1" parent="Me6fwh5fdMOHNFARENvE-17">
          <mxGeometry y="60" width="150" height="30" as="geometry" />
        </mxCell>
        <mxCell id="Me6fwh5fdMOHNFARENvE-20" value="+selecionarMusica(): void" style="text;strokeColor=none;fillColor=none;align=left;verticalAlign=middle;spacingLeft=4;spacingRight=4;overflow=hidden;points=[[0,0.5],[1,0.5]];portConstraint=eastwest;rotatable=0;whiteSpace=wrap;html=1;rounded=1;labelBackgroundColor=none;fontColor=#FFFFFF;" vertex="1" parent="Me6fwh5fdMOHNFARENvE-17">
          <mxGeometry y="90" width="150" height="30" as="geometry" />
        </mxCell>
        <mxCell id="Me6fwh5fdMOHNFARENvE-1" value="&amp;lt;&amp;lt;Class&amp;gt;&amp;gt;&lt;br&gt;Iphone" style="swimlane;fontStyle=0;childLayout=stackLayout;horizontal=1;startSize=30;horizontalStack=0;resizeParent=1;resizeParentMax=0;resizeLast=0;collapsible=1;marginBottom=0;whiteSpace=wrap;html=1;rounded=1;labelBackgroundColor=none;fillColor=#56517E;strokeColor=#EEEEEE;fontColor=#FFFFFF;" vertex="1" parent="1">
          <mxGeometry x="330" y="30" width="140" height="120" as="geometry" />
        </mxCell>
        <mxCell id="Me6fwh5fdMOHNFARENvE-2" value="Navegador" style="text;strokeColor=none;fillColor=none;align=left;verticalAlign=middle;spacingLeft=4;spacingRight=4;overflow=hidden;points=[[0,0.5],[1,0.5]];portConstraint=eastwest;rotatable=0;whiteSpace=wrap;html=1;rounded=1;labelBackgroundColor=none;fontColor=#FFFFFF;" vertex="1" parent="Me6fwh5fdMOHNFARENvE-1">
          <mxGeometry y="30" width="140" height="30" as="geometry" />
        </mxCell>
        <mxCell id="Me6fwh5fdMOHNFARENvE-3" value="ReprodutorMusical" style="text;strokeColor=none;fillColor=none;align=left;verticalAlign=middle;spacingLeft=4;spacingRight=4;overflow=hidden;points=[[0,0.5],[1,0.5]];portConstraint=eastwest;rotatable=0;whiteSpace=wrap;html=1;rounded=1;labelBackgroundColor=none;fontColor=#FFFFFF;" vertex="1" parent="Me6fwh5fdMOHNFARENvE-1">
          <mxGeometry y="60" width="140" height="30" as="geometry" />
        </mxCell>
        <mxCell id="Me6fwh5fdMOHNFARENvE-4" value="AparelhoTelefonico" style="text;strokeColor=none;fillColor=none;align=left;verticalAlign=middle;spacingLeft=4;spacingRight=4;overflow=hidden;points=[[0,0.5],[1,0.5]];portConstraint=eastwest;rotatable=0;whiteSpace=wrap;html=1;rounded=1;labelBackgroundColor=none;fontColor=#FFFFFF;" vertex="1" parent="Me6fwh5fdMOHNFARENvE-1">
          <mxGeometry y="90" width="140" height="30" as="geometry" />
        </mxCell>
        <mxCell id="Me6fwh5fdMOHNFARENvE-23" style="edgeStyle=orthogonalEdgeStyle;rounded=1;orthogonalLoop=1;jettySize=auto;html=1;entryX=0.5;entryY=1;entryDx=0;entryDy=0;entryPerimeter=0;labelBackgroundColor=none;fontColor=default;strokeColor=#182E3E;" edge="1" parent="1" source="Me6fwh5fdMOHNFARENvE-13" target="Me6fwh5fdMOHNFARENvE-4">
          <mxGeometry relative="1" as="geometry" />
        </mxCell>
      </root>
    </mxGraphModel>
  </diagram>
</mxfile>
